<?xml version="1.0" encoding="UTF-8"?>
<svg id="Capa_1" data-name="Capa 1" xmlns="http://www.w3.org/2000/svg" viewBox="0 0 600 600">
  <defs>
    <style>
      .cls-1 {
        fill: #000;
      }

      .cls-1, .cls-2 {
        stroke-width: 0px;
      }

      .cls-2 {
        fill: #111;
      }
    </style>
  </defs>
  <g>
    <g>
      <path class="cls-2" d="M177.83,494.67l35.98-121.42c1.08-3.63-1.3-6.6-5.31-6.64l-134-1.1c-4.01-.03-8.13,2.89-9.21,6.52l-16.04,54.13c-1.08,3.63,1.3,6.6,5.31,6.64l59.74.49c4.01.03,6.39,3,5.31,6.64l-16.04,54.13c-1.08,3.63,1.3,6.6,5.31,6.64l59.74.49c4.01.03,8.13-2.89,9.21-6.52Z"/>
      <path class="cls-2" d="M183.33,224.92l16.04-54.13c1.08-3.63-1.3-6.6-5.31-6.64l-59.74-.49c-4.01-.03-8.13,2.89-9.21,6.52l-16.04,54.13c-1.08,3.63,1.3,6.6,5.31,6.64l59.74.49c4.01.03,8.13-2.89,9.21-6.52Z"/>
      <path class="cls-2" d="M277.53,158.25l16.04-54.13c1.08-3.63-1.3-6.6-5.31-6.64l-59.74-.49c-4.01-.03-8.13,2.89-9.21,6.52l-16.04,54.13c-1.08,3.63,1.3,6.6,5.31,6.64l59.74.49c4.01.03,8.13-2.89,9.21-6.52Z"/>
      <path class="cls-2" d="M500.32,160.08l16.04-54.13c1.08-3.63-1.3-6.6-5.31-6.64l-59.74-.49c-4.01-.03-8.13,2.89-9.21,6.52l-16.04,54.13c-1.08,3.63,1.3,6.6,5.31,6.64l59.74.49c4.01.03,8.13-2.89,9.21-6.52Z"/>
      <path class="cls-2" d="M400.62,496.5l35.98-121.42c1.08-3.63-1.3-6.6-5.31-6.64l-134-1.1c-4.01-.03-8.13,2.89-9.21,6.52l-16.04,54.13c-1.08,3.63,1.3,6.6,5.31,6.64l59.74.49c4.01.03,6.39,3,5.31,6.64l-16.04,54.13c-1.08,3.63,1.3,6.6,5.31,6.64l59.74.49c4.01.03,8.13-2.89,9.21-6.52Z"/>
      <path class="cls-2" d="M406.12,226.75l16.04-54.13c1.08-3.63-1.3-6.6-5.31-6.64l-59.74-.49c-4.01-.03-8.13,2.89-9.21,6.52l-16.04,54.13c-1.08,3.63,1.3,6.6,5.31,6.64l59.74.49c4.01.03,8.13-2.89,9.21-6.52Z"/>
      <path class="cls-2" d="M291.98,360.7l35.98-121.41c1.08-3.63-1.3-6.6-5.31-6.64l-134.01-1.1c-4.01-.03-8.13,2.89-9.21,6.52l-16.04,54.13c-1.08,3.63,1.3,6.6,5.31,6.64l59.74.49c4.01.03,6.39,3,5.31,6.64l-16.04,54.13c-1.08,3.63,1.3,6.6,5.31,6.64l59.75.49c4.01.03,8.13-2.89,9.21-6.52Z"/>
      <path class="cls-2" d="M514.77,362.54l35.98-121.41c1.08-3.63-1.3-6.6-5.31-6.64l-134.01-1.1c-4.01-.03-8.13,2.89-9.21,6.52l-16.04,54.13c-1.08,3.63,1.3,6.6,5.31,6.64l59.74.49c4.01.03,6.39,3,5.31,6.64l-16.04,54.13c-1.08,3.63,1.3,6.6,5.31,6.64l59.75.49c4.01.03,8.13-2.89,9.21-6.52Z"/>
    </g>
    <g>
      <path class="cls-2" d="M177.83,494.67l35.98-121.42c1.08-3.63-1.3-6.6-5.31-6.64l-134-1.1c-4.01-.03-8.13,2.89-9.21,6.52l-16.04,54.13c-1.08,3.63,1.3,6.6,5.31,6.64l59.74.49c4.01.03,6.39,3,5.31,6.64l-16.04,54.13c-1.08,3.63,1.3,6.6,5.31,6.64l59.74.49c4.01.03,8.13-2.89,9.21-6.52Z"/>
      <path class="cls-2" d="M183.33,224.92l16.04-54.13c1.08-3.63-1.3-6.6-5.31-6.64l-59.74-.49c-4.01-.03-8.13,2.89-9.21,6.52l-16.04,54.13c-1.08,3.63,1.3,6.6,5.31,6.64l59.74.49c4.01.03,8.13-2.89,9.21-6.52Z"/>
      <path class="cls-2" d="M277.53,158.25l16.04-54.13c1.08-3.63-1.3-6.6-5.31-6.64l-59.74-.49c-4.01-.03-8.13,2.89-9.21,6.52l-16.04,54.13c-1.08,3.63,1.3,6.6,5.31,6.64l59.74.49c4.01.03,8.13-2.89,9.21-6.52Z"/>
      <path class="cls-2" d="M500.32,160.08l16.04-54.13c1.08-3.63-1.3-6.6-5.31-6.64l-59.74-.49c-4.01-.03-8.13,2.89-9.21,6.52l-16.04,54.13c-1.08,3.63,1.3,6.6,5.31,6.64l59.74.49c4.01.03,8.13-2.89,9.21-6.52Z"/>
      <path class="cls-2" d="M400.62,496.5l35.98-121.42c1.08-3.63-1.3-6.6-5.31-6.64l-134-1.1c-4.01-.03-8.13,2.89-9.21,6.52l-16.04,54.13c-1.08,3.63,1.3,6.6,5.31,6.64l59.74.49c4.01.03,6.39,3,5.31,6.64l-16.04,54.13c-1.08,3.63,1.3,6.6,5.31,6.64l59.74.49c4.01.03,8.13-2.89,9.21-6.52Z"/>
      <path class="cls-2" d="M406.12,226.75l16.04-54.13c1.08-3.63-1.3-6.6-5.31-6.64l-59.74-.49c-4.01-.03-8.13,2.89-9.21,6.52l-16.04,54.13c-1.08,3.63,1.3,6.6,5.31,6.64l59.74.49c4.01.03,8.13-2.89,9.21-6.52Z"/>
      <path class="cls-2" d="M291.98,360.7l35.98-121.41c1.08-3.63-1.3-6.6-5.31-6.64l-134.01-1.1c-4.01-.03-8.13,2.89-9.21,6.52l-16.04,54.13c-1.08,3.63,1.3,6.6,5.31,6.64l59.74.49c4.01.03,6.39,3,5.31,6.64l-16.04,54.13c-1.08,3.63,1.3,6.6,5.31,6.64l59.75.49c4.01.03,8.13-2.89,9.21-6.52Z"/>
      <path class="cls-2" d="M514.77,362.54l35.98-121.41c1.08-3.63-1.3-6.6-5.31-6.64l-134.01-1.1c-4.01-.03-8.13,2.89-9.21,6.52l-16.04,54.13c-1.08,3.63,1.3,6.6,5.31,6.64l59.74.49c4.01.03,6.39,3,5.31,6.64l-16.04,54.13c-1.08,3.63,1.3,6.6,5.31,6.64l59.75.49c4.01.03,8.13-2.89,9.21-6.52Z"/>
    </g>
    <g>
      <path class="cls-2" d="M177.83,494.67l35.98-121.42c1.08-3.63-1.3-6.6-5.31-6.64l-134-1.1c-4.01-.03-8.13,2.89-9.21,6.52l-16.04,54.13c-1.08,3.63,1.3,6.6,5.31,6.64l59.74.49c4.01.03,6.39,3,5.31,6.64l-16.04,54.13c-1.08,3.63,1.3,6.6,5.31,6.64l59.74.49c4.01.03,8.13-2.89,9.21-6.52Z"/>
      <path class="cls-2" d="M183.33,224.92l16.04-54.13c1.08-3.63-1.3-6.6-5.31-6.64l-59.74-.49c-4.01-.03-8.13,2.89-9.21,6.52l-16.04,54.13c-1.08,3.63,1.3,6.6,5.31,6.64l59.74.49c4.01.03,8.13-2.89,9.21-6.52Z"/>
      <path class="cls-2" d="M277.53,158.25l16.04-54.13c1.08-3.63-1.3-6.6-5.31-6.64l-59.74-.49c-4.01-.03-8.13,2.89-9.21,6.52l-16.04,54.13c-1.08,3.63,1.3,6.6,5.31,6.64l59.74.49c4.01.03,8.13-2.89,9.21-6.52Z"/>
      <path class="cls-2" d="M500.32,160.08l16.04-54.13c1.08-3.63-1.3-6.6-5.31-6.64l-59.74-.49c-4.01-.03-8.13,2.89-9.21,6.52l-16.04,54.13c-1.08,3.63,1.3,6.6,5.31,6.64l59.74.49c4.01.03,8.13-2.89,9.21-6.52Z"/>
      <path class="cls-2" d="M400.62,496.5l35.98-121.42c1.08-3.63-1.3-6.6-5.31-6.64l-134-1.1c-4.01-.03-8.13,2.89-9.21,6.52l-16.04,54.13c-1.08,3.63,1.3,6.6,5.31,6.64l59.74.49c4.01.03,6.39,3,5.31,6.64l-16.04,54.13c-1.08,3.63,1.3,6.6,5.31,6.64l59.74.49c4.01.03,8.13-2.89,9.21-6.52Z"/>
      <path class="cls-2" d="M406.12,226.75l16.04-54.13c1.08-3.63-1.3-6.6-5.31-6.64l-59.74-.49c-4.01-.03-8.13,2.89-9.21,6.52l-16.04,54.13c-1.08,3.63,1.3,6.6,5.31,6.64l59.74.49c4.01.03,8.13-2.89,9.21-6.52Z"/>
      <path class="cls-2" d="M291.98,360.7l35.98-121.41c1.08-3.63-1.3-6.6-5.31-6.64l-134.01-1.1c-4.01-.03-8.13,2.89-9.21,6.52l-16.04,54.13c-1.08,3.63,1.3,6.6,5.31,6.64l59.74.49c4.01.03,6.39,3,5.31,6.64l-16.04,54.13c-1.08,3.63,1.3,6.6,5.31,6.64l59.75.49c4.01.03,8.13-2.89,9.21-6.52Z"/>
      <path class="cls-2" d="M514.77,362.54l35.98-121.41c1.08-3.63-1.3-6.6-5.31-6.64l-134.01-1.1c-4.01-.03-8.13,2.89-9.21,6.52l-16.04,54.13c-1.08,3.63,1.3,6.6,5.31,6.64l59.74.49c4.01.03,6.39,3,5.31,6.64l-16.04,54.13c-1.08,3.63,1.3,6.6,5.31,6.64l59.75.49c4.01.03,8.13-2.89,9.21-6.52Z"/>
    </g>
  </g>
  <g>
    <path class="cls-1" d="M177.83,494.67l35.98-121.42c1.08-3.63-1.3-6.6-5.31-6.64l-134-1.1c-4.01-.03-8.13,2.89-9.21,6.52l-16.04,54.13c-1.08,3.63,1.3,6.6,5.31,6.64l59.74.49c4.01.03,6.39,3,5.31,6.64l-16.04,54.13c-1.08,3.63,1.3,6.6,5.31,6.64l59.74.49c4.01.03,8.13-2.89,9.21-6.52Z"/>
    <path class="cls-1" d="M183.33,224.92l16.04-54.13c1.08-3.63-1.3-6.6-5.31-6.64l-59.74-.49c-4.01-.03-8.13,2.89-9.21,6.52l-16.04,54.13c-1.08,3.63,1.3,6.6,5.31,6.64l59.74.49c4.01.03,8.13-2.89,9.21-6.52Z"/>
    <path class="cls-1" d="M277.53,158.25l16.04-54.13c1.08-3.63-1.3-6.6-5.31-6.64l-59.74-.49c-4.01-.03-8.13,2.89-9.21,6.52l-16.04,54.13c-1.08,3.63,1.3,6.6,5.31,6.64l59.74.49c4.01.03,8.13-2.89,9.21-6.52Z"/>
    <path class="cls-1" d="M500.32,160.08l16.04-54.13c1.08-3.63-1.3-6.6-5.31-6.64l-59.74-.49c-4.01-.03-8.13,2.89-9.21,6.52l-16.04,54.13c-1.08,3.63,1.3,6.6,5.31,6.64l59.74.49c4.01.03,8.13-2.89,9.21-6.52Z"/>
    <path class="cls-1" d="M400.62,496.5l35.98-121.42c1.08-3.63-1.3-6.6-5.31-6.64l-134-1.1c-4.01-.03-8.13,2.89-9.21,6.52l-16.04,54.13c-1.08,3.63,1.3,6.6,5.31,6.64l59.74.49c4.01.03,6.39,3,5.31,6.64l-16.04,54.13c-1.08,3.63,1.3,6.6,5.31,6.64l59.74.49c4.01.03,8.13-2.89,9.21-6.52Z"/>
    <path class="cls-1" d="M406.12,226.75l16.04-54.13c1.08-3.63-1.3-6.6-5.31-6.64l-59.74-.49c-4.01-.03-8.13,2.89-9.21,6.52l-16.04,54.13c-1.08,3.63,1.3,6.6,5.31,6.64l59.74.49c4.01.03,8.13-2.89,9.21-6.52Z"/>
    <path class="cls-1" d="M291.98,360.7l35.98-121.41c1.08-3.63-1.3-6.6-5.31-6.64l-134.01-1.1c-4.01-.03-8.13,2.89-9.21,6.52l-16.04,54.13c-1.08,3.63,1.3,6.6,5.31,6.64l59.74.49c4.01.03,6.39,3,5.31,6.64l-16.04,54.13c-1.08,3.63,1.3,6.6,5.31,6.64l59.75.49c4.01.03,8.13-2.89,9.21-6.52Z"/>
    <path class="cls-1" d="M514.77,362.54l35.98-121.41c1.08-3.63-1.3-6.6-5.31-6.64l-134.01-1.1c-4.01-.03-8.13,2.89-9.21,6.52l-16.04,54.13c-1.08,3.63,1.3,6.6,5.31,6.64l59.74.49c4.01.03,6.39,3,5.31,6.64l-16.04,54.13c-1.08,3.63,1.3,6.6,5.31,6.64l59.75.49c4.01.03,8.13-2.89,9.21-6.52Z"/>
  </g>
</svg>