<?xml version="1.0" encoding="UTF-8"?>
<svg id="Capa_1" data-name="Capa 1" xmlns="http://www.w3.org/2000/svg" viewBox="0 0 1122.99 404.01">
  <defs>
    <style>
      .cls-1 {
        fill: #000;
      }

      .cls-1, .cls-2 {
        stroke-width: 0px;
      }

      .cls-2 {
        fill: #111;
      }
    </style>
  </defs>
  <g>
    <path class="cls-2" d="M101.25,0c44.25,0,78.5,27,83.75,65.5h-40c-4-20.75-17.25-30.5-43.75-30.5-30.75,0-48.75,16.75-48.75,55.5s14.25,55.75,43.25,55.75c24,0,39-12,39-35.75h-40.75v-30h92c13.75,0,21.25,7.5,21.25,21.25v77h-40v-60.75l7.5-27.5h-10c-.25,55.25-22,90.75-70.5,90.75-52.75,0-81.75-36.75-81.75-90.75S50.25,0,101.25,0Z"/>
    <path class="cls-2" d="M208.5,2.5h68.25c42,0,78.5,9.75,78.5,49.25,0,29-23.5,37-44.75,39.5v10h25.75c13.75,0,21.25,7.5,21.25,21.25v56.25h-40v-62h-69v62h-40V2.5ZM276.75,81.75c23.75,0,38.5,0,38.5-22s-14.75-22.25-38.5-22.25h-28.25v44.25h28.25Z"/>
    <path class="cls-2" d="M446.25,0c55.75,0,89.75,39.25,89.75,90.5s-34,90.75-89.75,90.75-90-39.25-90-90.75S390.25,0,446.25,0ZM446.25,146.25c33.25,0,49.75-21.75,49.75-55.75s-16.5-55.5-49.75-55.5-50,21.75-50,55.5,16.75,55.75,50,55.75Z"/>
    <path class="cls-2" d="M563.49,2.5l28,166.25h10L623.24,2.5h85l21.75,166.25h10L767.99,2.5h38.75l-30.25,176.25h-83l-22.75-166.25h-10l-22.75,166.25h-83L524.74,2.5h38.75Z"/>
    <path class="cls-2" d="M955.74,37.5h-57.5v141.25h-40V37.5h-57.75V2.5h155.25v35Z"/>
    <path class="cls-2" d="M1122.99,2.5v176.25h-40v-68.25h-88.5v68.25h-40V2.5h40v73h88.5V2.5h40Z"/>
    <path class="cls-2" d="M45.41,342.97h-15.26v-15.26h-14.89v-30.15H0v-46.14h15.26v-30.52h15.26v-15.26h15.26v-15.26h30.52v-15.26h61.04v15.26h30.52v15.26h15.26v30.52h15.26v45.78h-15.26v30.52h-15.26v30.52h14.89v-15.26h30.52v-15.26h15.26v-15.26h15.62v-30.52h15.26v-30.52h15.26v-30.52h-15.26v-30.52h30.52v61.4h-15.26v30.52h-15.26v30.52h-15.26v14.89h-15.26v15.26h-15.26v15.26h-30.52v15.26h-15.26v15.26h-30.52v15.26h-15.26v15.26h-30.52v-30.52h30.52v-15.26h15.26v-30.52h15.26v-61.04h15.26v-15.26h-15.26v-45.78h-30.52v-15.26h-30.52v15.26h-30.52v15.26h-15.26v15.26h-15.26v30.52h-15.26v30.52h15.26v30.52h15.26v15.26h30.15v-15.26h30.88v-30.52h15.26v-61.04h-30.52v15.26h-15.26v15.26h-15.26v30.52h15.26v15.26h-15.62v-15.26h-14.89v-45.78h15.26v-15.26h15.26v-15.26h46.14v15.26h14.89v61.4h-15.26v30.52h-15.26v14.89h-30.52v15.26h-30.88v-15.26Z"/>
    <path class="cls-2" d="M246.75,327.71h15.26v-30.52h15.26v-30.52h30.52v30.52h-15.26v45.78h-15.26v30.52h30.52v-15.26h15.26v-30.52h14.89v-15.26h15.62v15.26h-15.26v30.88h-15.26v15.26h-15.26v14.89h-45.78v-15.26h-15.26v-45.78ZM292.53,251.42v-30.52h30.52v30.52h-30.52Z"/>
    <path class="cls-2" d="M334.81,312.46h15.26v-15.26h15.26v-15.26h15.26v-15.26h30.52v30.52h-15.26v-14.89h-15.26v45.41h-15.26v45.78h30.52v-30.52h15.26v-15.26h15.26v-76.17h15.26v-30.4h-15.26v-30.76h-61.04v15.26h-15.26v-15.62h15.26v-14.89h61.04v14.89h15.26v15.26h15.26v107.18h-15.26v45.78h-15.26v15.26h-30.15v15.26h-46.14v-15.26h-15.26v-61.04Z"/>
    <path class="cls-2" d="M468.65,388.75v-15.26h-15.26v-61.04h15.26v-15.26h15.26v-15.26h15.26v-15.26h45.78v15.26h15.26v15.26h-15.26v15.62h-15.26v15.26h-15.26v14.89h-30.52v30.52h45.65v-15.26h15.38v-30.52h14.89v-15.26h15.62v15.26h-15.26v30.88h-15.26v14.89h-15.01v15.26h-61.28ZM483.91,327.71h30.52v-15.26h15.26v-30.52h-15.26v15.26h-15.26v15.26h-15.26v15.26Z"/>
    <path class="cls-2" d="M556.71,373.49v-45.78h15.26v-30.52h15.26v-15.26h30.15v-15.26h46.14v15.26h15.26v45.9h-15.26v30.4h-15.26v15.38h-30.27v15.14h-46.02v-15.26h-15.26ZM617.75,373.49v-15.26h15.26v-30.52h15.26v-45.78h-30.52v15.26h-15.26v30.52h-15.26v45.78h30.52Z"/>
    <path class="cls-2" d="M695.54,380v-167.5h8.75v171.75l90.5-2.5v7l-88,2.5c-7,.25-11.25-4.25-11.25-11.25Z"/>
    <path class="cls-2" d="M900.79,312.25h-69.75l-26.25,76.5h-8.25l60.25-176.25h18l60.5,176.25h-8.25l-26.25-76.5ZM898.29,305.25l-30.75-89.5h-3.5l-30.75,89.5h65Z"/>
    <path class="cls-2" d="M944.54,212.5h37.5c39.5,0,64.75,8.5,64.75,43.25,0,21-13.25,37.5-31,38.5v3.5c27,.25,44,16.5,44,44.25,0,32.75-20.75,46.75-61.5,46.75h-53.75v-176.25ZM980.29,293.5c36.25,0,57.75-6.75,57.75-37,0-34-21.5-37-57.75-37h-27v74h27ZM996.54,381.75c33.75,0,54.5-8,54.5-40.5,0-29.5-20.75-40.75-54.5-40.75h-43.25v81.25h43.25Z"/>
  </g>
  <g>
    <path class="cls-1" d="M101.25,0c44.25,0,78.5,27,83.75,65.5h-40c-4-20.75-17.25-30.5-43.75-30.5-30.75,0-48.75,16.75-48.75,55.5s14.25,55.75,43.25,55.75c24,0,39-12,39-35.75h-40.75v-30h92c13.75,0,21.25,7.5,21.25,21.25v77h-40v-60.75l7.5-27.5h-10c-.25,55.25-22,90.75-70.5,90.75-52.75,0-81.75-36.75-81.75-90.75S50.25,0,101.25,0Z"/>
    <path class="cls-1" d="M208.5,2.5h68.25c42,0,78.5,9.75,78.5,49.25,0,29-23.5,37-44.75,39.5v10h25.75c13.75,0,21.25,7.5,21.25,21.25v56.25h-40v-62h-69v62h-40V2.5ZM276.75,81.75c23.75,0,38.5,0,38.5-22s-14.75-22.25-38.5-22.25h-28.25v44.25h28.25Z"/>
    <path class="cls-1" d="M446.25,0c55.75,0,89.75,39.25,89.75,90.5s-34,90.75-89.75,90.75-90-39.25-90-90.75S390.25,0,446.25,0ZM446.25,146.25c33.25,0,49.75-21.75,49.75-55.75s-16.5-55.5-49.75-55.5-50,21.75-50,55.5,16.75,55.75,50,55.75Z"/>
    <path class="cls-1" d="M563.49,2.5l28,166.25h10L623.24,2.5h85l21.75,166.25h10L767.99,2.5h38.75l-30.25,176.25h-83l-22.75-166.25h-10l-22.75,166.25h-83L524.74,2.5h38.75Z"/>
    <path class="cls-1" d="M955.74,37.5h-57.5v141.25h-40V37.5h-57.75V2.5h155.25v35Z"/>
    <path class="cls-1" d="M1122.99,2.5v176.25h-40v-68.25h-88.5v68.25h-40V2.5h40v73h88.5V2.5h40Z"/>
    <path class="cls-1" d="M45.41,342.97h-15.26v-15.26h-14.89v-30.15H0v-46.14h15.26v-30.52h15.26v-15.26h15.26v-15.26h30.52v-15.26h61.04v15.26h30.52v15.26h15.26v30.52h15.26v45.78h-15.26v30.52h-15.26v30.52h14.89v-15.26h30.52v-15.26h15.26v-15.26h15.62v-30.52h15.26v-30.52h15.26v-30.52h-15.26v-30.52h30.52v61.4h-15.26v30.52h-15.26v30.52h-15.26v14.89h-15.26v15.26h-15.26v15.26h-30.52v15.26h-15.26v15.26h-30.52v15.26h-15.26v15.26h-30.52v-30.52h30.52v-15.26h15.26v-30.52h15.26v-61.04h15.26v-15.26h-15.26v-45.78h-30.52v-15.26h-30.52v15.26h-30.52v15.26h-15.26v15.26h-15.26v30.52h-15.26v30.52h15.26v30.52h15.26v15.26h30.15v-15.26h30.88v-30.52h15.26v-61.04h-30.52v15.26h-15.26v15.26h-15.26v30.52h15.26v15.26h-15.62v-15.26h-14.89v-45.78h15.26v-15.26h15.26v-15.26h46.14v15.26h14.89v61.4h-15.26v30.52h-15.26v14.89h-30.52v15.26h-30.88v-15.26Z"/>
    <path class="cls-1" d="M246.75,327.71h15.26v-30.52h15.26v-30.52h30.52v30.52h-15.26v45.78h-15.26v30.52h30.52v-15.26h15.26v-30.52h14.89v-15.26h15.62v15.26h-15.26v30.88h-15.26v15.26h-15.26v14.89h-45.78v-15.26h-15.26v-45.78ZM292.53,251.42v-30.52h30.52v30.52h-30.52Z"/>
    <path class="cls-1" d="M334.81,312.46h15.26v-15.26h15.26v-15.26h15.26v-15.26h30.52v30.52h-15.26v-14.89h-15.26v45.41h-15.26v45.78h30.52v-30.52h15.26v-15.26h15.26v-76.17h15.26v-30.4h-15.26v-30.76h-61.04v15.26h-15.26v-15.62h15.26v-14.89h61.04v14.89h15.26v15.26h15.26v107.18h-15.26v45.78h-15.26v15.26h-30.15v15.26h-46.14v-15.26h-15.26v-61.04Z"/>
    <path class="cls-1" d="M468.65,388.75v-15.26h-15.26v-61.04h15.26v-15.26h15.26v-15.26h15.26v-15.26h45.78v15.26h15.26v15.26h-15.26v15.62h-15.26v15.26h-15.26v14.89h-30.52v30.52h45.65v-15.26h15.38v-30.52h14.89v-15.26h15.62v15.26h-15.26v30.88h-15.26v14.89h-15.01v15.26h-61.28ZM483.91,327.71h30.52v-15.26h15.26v-30.52h-15.26v15.26h-15.26v15.26h-15.26v15.26Z"/>
    <path class="cls-1" d="M556.71,373.49v-45.78h15.26v-30.52h15.26v-15.26h30.15v-15.26h46.14v15.26h15.26v45.9h-15.26v30.4h-15.26v15.38h-30.27v15.14h-46.02v-15.26h-15.26ZM617.75,373.49v-15.26h15.26v-30.52h15.26v-45.78h-30.52v15.26h-15.26v30.52h-15.26v45.78h30.52Z"/>
    <path class="cls-1" d="M695.54,380v-167.5h8.75v171.75l90.5-2.5v7l-88,2.5c-7,.25-11.25-4.25-11.25-11.25Z"/>
    <path class="cls-1" d="M900.79,312.25h-69.75l-26.25,76.5h-8.25l60.25-176.25h18l60.5,176.25h-8.25l-26.25-76.5ZM898.29,305.25l-30.75-89.5h-3.5l-30.75,89.5h65Z"/>
    <path class="cls-1" d="M944.54,212.5h37.5c39.5,0,64.75,8.5,64.75,43.25,0,21-13.25,37.5-31,38.5v3.5c27,.25,44,16.5,44,44.25,0,32.75-20.75,46.75-61.5,46.75h-53.75v-176.25ZM980.29,293.5c36.25,0,57.75-6.75,57.75-37,0-34-21.5-37-57.75-37h-27v74h27ZM996.54,381.75c33.75,0,54.5-8,54.5-40.5,0-29.5-20.75-40.75-54.5-40.75h-43.25v81.25h43.25Z"/>
  </g>
</svg>